<?xml version="1.0" encoding="utf-8"?>
<!-- Generator: Adobe Illustrator 18.0.0, SVG Export Plug-In . SVG Version: 6.00 Build 0)  -->
<!DOCTYPE svg PUBLIC "-//W3C//DTD SVG 1.1//EN" "http://www.w3.org/Graphics/SVG/1.1/DTD/svg11.dtd">
<svg version="1.1" id="Layer_1" xmlns="http://www.w3.org/2000/svg" xmlns:xlink="http://www.w3.org/1999/xlink" x="0px" y="0px"
	 viewBox="0 0 150.5 69.3" enable-background="new 0 0 150.5 69.3" xml:space="preserve">
<path d="M70.4,68.4c0,0.2-0.2,0.4-0.6,0.4H57.1c-0.3,0-0.6-0.2-0.6-0.4c0-0.2,0.3-0.4,0.5-0.4c2.3-0.2,2.6-0.7,2.6-4.8V45.9
	c0-2.5-0.2-3.5-0.8-4.3c-0.5-0.7-1.1-1.1-2.3-1.1c-0.3,0-0.5-0.2-0.6-0.4c0-0.2,0.2-0.4,0.5-0.5c3.4-0.7,7.8-1.9,10.3-2.7
	c0.3-0.1,0.6,0.1,0.6,0.4v25.9c0,4,0.3,4.6,2.5,4.8C70.2,68,70.4,68.2,70.4,68.4z"/>
<path d="M112.6,46.9c-2.1,0-4,0.7-5.9,2.3c0,0-0.1,0-0.1,0c0,0,0,0,0-0.1V37.3c0-0.3-0.3-0.5-0.6-0.4c-2.3,0.8-6.9,2-10.3,2.7
	c-0.3,0.1-0.5,0.3-0.5,0.5c0,0.2,0.3,0.4,0.6,0.4c1.1,0.1,1.7,0.4,2.2,1.1c0.6,0.8,0.8,1.8,0.8,4.3v22.8c0,0.3,0.2,0.5,0.4,0.5
	c0.2,0,0.4-0.3,0.5-0.5c0.3-0.9,0.8-1.2,1.6-1.2c0.4,0,0.5,0,1.2,0.3c3.7,1.3,4.5,1.4,6.6,1.4c6.8,0,11.8-5.3,11.8-12.4
	C120.9,51.1,117.4,46.9,112.6,46.9z M108.9,68.1c-1.7,0-2.4-1.2-2.4-4.4V51.3c0-0.2,0.1-0.5,0.2-0.6c0.8-0.8,1.4-1.2,2.1-1.2
	c2.7,0,3.8,2.6,3.8,9C112.7,65,111.5,68.1,108.9,68.1z"/>
<path d="M95.9,65.5c-2-0.3-2.5-1.3-2.5-4.6V47.4c0-0.3-0.5-0.5-0.8-0.4c-3,0.5-7.3,1-9.6,1c-0.3,0-0.5,0.2-0.5,0.4
	c0,0.2,0.2,0.4,0.5,0.4c2.2,0.2,2.6,1,2.6,4.7V64c0,0.2,0,0.6-0.1,0.7c-1,0.9-1.7,1.3-2.6,1.3c-0.8,0-1.6-0.4-1.9-1
	c-0.3-0.6-0.4-1.3-0.4-2.7V47.4c0-0.3-0.5-0.5-0.8-0.4c-3,0.5-7.3,1-9.6,1c-0.3,0-0.5,0.2-0.5,0.4c0,0.2,0.2,0.4,0.5,0.4
	c2.2,0.2,2.7,1.1,2.7,4.8V63c0,2.3,0.2,3.5,1,4.5c0.8,1.1,2.5,1.9,4.2,1.9c1.8,0,3.6-0.6,5.3-1.7c0.7-0.5,1.2-0.9,2.5-2c0,0,0,0,0,0
	c0,0,0,0,0,0.1v3.1c0,0.3,0.3,0.5,0.6,0.4l4.9-1.6c1.6-0.5,3-0.9,4.8-1.2c0.3,0,0.5-0.2,0.5-0.4C96.4,65.7,96.2,65.6,95.9,65.5z"/>
<path d="M53.5,56.8c-0.2,0-0.4,0.3-0.5,0.5c-0.7,2.7-1.6,4.7-3,6.7c-2.1,3.2-4.1,3.7-5.9,3.7c-1.6,0-3.5-0.2-4.6-1.9
	c-1.7-2.5-2.9-5.7-2.9-10.8c0-9,2.5-13.6,6.5-13.6c2.1,0,4,0.5,5.8,2.8c1.7,2.1,2.9,4.3,3.8,7c0.1,0.2,0.3,0.5,0.5,0.5
	c0.1,0,0.1,0,0.2-0.1c0.1-0.1,0.1-0.3,0.1-0.5l-0.6-10.4c0-0.3-0.2-0.5-0.4-0.5c-0.2,0-0.3,0.1-0.5,0.4c-0.2,0.3-0.4,0.4-0.8,0.4
	c-0.5,0-1-0.1-2.2-0.4c-2.1-0.5-4.2-0.8-5.7-0.8c-8.6,0-15.6,6.9-15.6,15.1c0,8.3,7.3,14.4,16.2,14.4c1.2,0,3.1-0.2,4-0.3
	c2.9-0.6,3.7-0.7,4.1-0.7c0.3,0,0.6,0.1,0.7,0.4c0.1,0.3,0.3,0.5,0.4,0.5c0.2,0,0.4-0.2,0.4-0.5l0.4-11.2c0-0.2,0-0.4-0.1-0.5
	C53.7,56.9,53.6,56.8,53.5,56.8z"/>
<path d="M141.7,18.6c0.4,0,0.9,0.1,1.4,0.2c2.5,0.7,4.6,4,5.2,8.2c0,0.2,0.2,0.5,0.4,0.6c0.2,0.1,0.4-0.1,0.5-0.4l1.3-6
	c0.1-0.3-0.1-0.6-0.3-0.8c-2.4-1.5-4.5-2.4-6.5-3c-1.1-0.3-2.3-0.5-3.4-0.5c-3.7,0-6.6,1.8-7.4,4.8c-0.8,3,0.7,5.6,5.4,8.9L140,32
	c2.5,1.8,3.2,2.9,2.7,4.6c-0.3,1-1,1.5-2.1,1.5c-0.5,0-1-0.1-1.6-0.2c-3.4-1-5.9-5-6.8-11.2c0-0.2-0.2-0.5-0.4-0.6
	c-0.2-0.1-0.4,0.1-0.5,0.4l-1.7,7.4c-0.1,0.3,0.1,0.6,0.3,0.8c3,2.2,6.1,3.9,8.1,4.5c1.1,0.3,2.3,0.5,3.4,0.5c3.9,0,6.9-2.1,7.9-5.4
	c0.8-2.9-0.6-5.4-4.5-8l-2.5-1.7c-2.3-1.5-3.2-3-2.7-4.6C139.9,18.9,140.9,18.6,141.7,18.6z"/>
<path d="M127.9,17.5c-1.4-2.9-4.2-4.8-7.6-5.5c-0.7-0.1-1.4-0.2-2.1-0.2c-5.6,0-10.3,4-11.3,9.5c-0.5,2.9,0.1,5.9,1.8,8.2
	c1.7,2.4,4.3,4,7.3,4.5c0.7,0.1,1.4,0.2,2.1,0.2c2.5,0,4.8-0.8,6.6-2.4c1.4-1.2,2.3-2.2,3.5-4.2c0.4-0.7-0.2-1.3-0.9-0.7
	c-1.6,1.6-3,2.5-4.9,2.5c-0.5,0-1.1-0.1-1.7-0.2c-4.2-0.8-6-3.3-5.6-7.7c0-0.1,0.1-0.2,0.3-0.2l13,2.3c0,0,0.1,0,0.1,0
	c0.3,0,0.5-0.2,0.5-0.4l0-0.3C129,20.7,128.7,19.3,127.9,17.5z M121.4,20.7c0,0.1-0.1,0.2-0.3,0.2l-5.6-1c-0.1,0-0.1,0-0.2-0.1
	c0-0.1-0.1-0.1,0-0.2c0.8-4.1,2-6.1,3.8-6.1c0.2,0,0.4,0,0.5,0.1c1.4,0.2,2.2,0.5,2.2,2.5C121.9,17.2,121.8,18.4,121.4,20.7z"/>
<path d="M26.4,25.6c-1.1-3.6-3.9-5.3-9.1-5.7l-4.2-0.3c-2.4-0.2-4.6-0.5-5.7-1c-1.1-0.4-1.9-1.3-2.2-2.5c-0.6-2.1,0.3-3.5,3-4.3
	c0.8-0.2,1.6-0.4,2.4-0.4c3.4,0,6.9,2.2,9.9,6.1c0.2,0.2,0.4,0.4,0.6,0.3c0.1,0,0.1-0.1,0.2-0.1c0.1-0.1,0.1-0.3,0-0.5l-3.3-9.1
	c-0.1-0.3-0.3-0.5-0.5-0.4c-0.2,0.1-0.3,0.4-0.3,0.6c0,0.4-0.2,0.5-0.6,0.6c-0.3,0.1-0.9,0.2-1.9,0.3c-3.4,0.2-4.8,0.4-6.4,1
	c-6,1.9-9.4,7.1-7.9,12.2c1,3.3,3.9,4.9,9.7,5.3l4.4,0.3c4.5,0.3,6.6,1.4,7.3,3.6c0.7,2.2-0.4,3.7-3.2,4.6c-1,0.3-2.2,0.6-3.4,0.6
	c-1.6,0-3.1-0.5-4.9-1.6c-3-1.9-5.4-4.1-7.2-6.6c-0.1-0.2-0.4-0.4-0.6-0.3c-0.1,0-0.1,0.1-0.2,0.1c-0.1,0.1-0.1,0.3,0,0.5l4,11.5
	C6.4,40.8,6.6,41,6.7,41c0,0,0.1,0,0.1,0c0.2,0,0.3-0.2,0.3-0.6c0.1-0.4,0.3-0.7,0.9-0.8c0.4-0.1,0.8-0.2,2-0.3
	c3.6-0.3,6.9-0.9,9-1.5C24.9,35.9,28,30.7,26.4,25.6z"/>
<path d="M55,12.7c0.7,0,1.5,0.3,1.8,0.9c0.4,0.7,0.5,1.5,0.7,4.7l0.5,7.9c0.1,2.2,0.1,2.6-0.1,3.1c-0.2,0.5-0.5,0.8-1.1,0.9
	c-0.3,0.1-0.5,0.2-0.5,0.4c0,0.2-0.1,0.3,0.2,0.3l0.1,0c3.4-0.2,7.2-0.3,10.5-0.3l0.2,0c0.2,0,0.5,0,0.7,0c0.2,0,0.3-0.1,0.4-0.2
	c0.1-0.1,0.1-0.2,0.1-0.4c0-0.3-0.2-0.5-0.6-0.5c-1.8-0.1-2.1-0.6-2.2-3.8l-0.6-10.9c-0.1-2.3-0.5-3.5-1.3-4.4
	c-0.9-1.1-2.5-1.7-4.5-1.6c-2.7,0.2-4.7,1.3-7.2,4.2c0,0,0,0,0,0c0,0,0,0,0,0l-0.2-3.2c0-0.3-0.3-0.5-0.6-0.4
	c-3.9,1.6-6.9,2.7-10.1,3.6c-0.3,0.1-0.5,0.3-0.4,0.5c0.1,0.2,0.3,0.3,0.6,0.3c1.1,0.1,1.7,0.3,2.3,1c0.7,0.8,0.9,1.7,1.1,4.3
	l0.4,6.9c0.2,4.2-0.1,4.7-2.9,5c-0.4,0-0.6,0-0.9,0c-1.8,0-2.2-0.6-2.6-4.3l-1.7-15.7c0-0.3-0.3-0.5-0.6-0.3
	c-2.4,1.2-6.6,2.9-9.9,4.1c-0.3,0.1-0.5,0.3-0.4,0.5c0,0.2,0.3,0.3,0.6,0.3c1.1,0,1.8,0.2,2.4,0.9c0.7,0.8,1,1.7,1.3,4.2l0.7,6.9
	c0.4,4-0.3,5.1-2.5,5.6c-0.3,0.1-0.5,0.2-0.5,0.4c0,0.2,0.4,0.3,0.6,0.3l0,0c0.1,0-0.1,0,0,0c1.8-0.3,12.1-2,25.9-2.8
	c0.2,0,0.4-0.1,0.5-0.2c0.1-0.1,0.1-0.1,0.1-0.2c0-0.2-0.3-0.3-0.5-0.4c-1.3-0.2-1.5-0.7-1.6-3.8L52.1,15c0-0.2,0.1-0.4,0.2-0.6
	C53.4,13.4,54.2,12.8,55,12.7z"/>
<path d="M94.2,2.6c1.1,0.2,1.7,0.6,2.2,1.3c0.6,0.9,0.6,1.8,0.4,4.3l-2,21.1c0,0.3,0,0.6,0.1,0.8c0,0.1,0.1,0.2,0.1,0.3
	c0.1,0.3,0.3,0.5,0.6,0.6l9,0.9c0,0,0.1,0,0.1,0c0.3,0,0.8-0.1,0.9-0.3c0-0.2-0.2-0.4-0.5-0.4c-2.2-0.4-2.4-1-2.1-5l2.4-25.8
	c0-0.1,0-0.3-0.1-0.4C105.1,0,104.9,0,104.8,0c-2.6,0.6-7,1.3-10.5,1.7c-0.3,0-0.5,0.2-0.5,0.4C93.7,2.4,94,2.6,94.2,2.6z"/>
<path d="M85.3,25.2c-0.7,0-1.9,0-2.8,0c-1.2,0.1-2.2,0.1-2.9,0.1c-3.5-0.1-4.8-0.8-4.7-2.6c0-0.5,0.2-0.9,0.8-1.4
	c0.1-0.1,0.4-0.2,0.5-0.1c1.6,0.6,2.9,0.8,4.5,0.9l0.1,0c0.1,0,0.2,0,0.3,0c5.3,0,9.5-3.1,9.6-7.1c0-1.8-0.9-3.5-2.5-4.8
	c-1.7-1.2-3.9-2.1-5.7-2.2l-0.5,0c0,0-0.1,0-0.2,0c0,0-0.1,0-0.1,0l0-0.2c0.1-2.2,0.7-2.5,1.3-2.5c0.4,0,0.7,0.2,1.5,1.1
	c0.9,1,1.6,1.3,2.6,1.4c1.8,0,3.1-1.4,3.2-3.3c0-2.1-1.6-3.7-3.8-3.7c0,0-0.1,0-0.1,0c-3.2,0-5.3,2.6-5.3,6.7l0,0.4
	c0,0.1-0.1,0.3-0.3,0.3c-2.2,0.1-3.5,0.4-5.1,1.2c-2.7,1.4-4.3,3.5-4.4,5.8c0,2.5,1.2,4.4,3.6,5.6c0.1,0,0.1,0,0.1,0
	c0,0,0,0-0.1,0.1c-3.2,2-4.7,4.1-4.7,6.6c0,2.4,1.4,4.2,4.2,5.1c-2.7,1.1-4.1,2.6-4.2,4.4c-0.1,3,3.5,5,9.4,5.2c0.2,0,0.4,0,0.5,0
	c7.3,0,12.9-4.1,13-9.5C93.1,28.5,89.9,25.3,85.3,25.2z M77.8,14.5c0.1-4.3,1.3-5.2,3-5.2c0.8,0,1.5,0.3,2,0.8
	c0.9,0.9,1.3,2.7,1.2,5.5c-0.1,4.4-1.2,5.2-3,5.2c-0.9,0-1.5-0.3-2-0.8C78.1,19.1,77.8,17.4,77.8,14.5z M82.1,40.6
	c-0.1,0-0.2,0-0.3,0c-4.5-0.1-7.4-2.2-7.3-5.3c0-1.1,0.3-1.8,1-2.3c0.1-0.1,0.3-0.1,0.5-0.1c0,0,0.1,0,0.1,0
	c1.2,0.2,1.9,0.3,2.9,0.3c0.4,0,1,0,1.7,0l0.7,0c1.2,0,1.9,0,2.3,0c3,0.1,4.6,1.3,4.5,3.5C88.1,39.1,85.8,40.6,82.1,40.6z"/>
<circle cx="32.1" cy="5.5" r="4.5"/>
</svg>
