<?xml version="1.0" encoding="utf-8"?>
<!-- Generator: Adobe Illustrator 18.0.0, SVG Export Plug-In . SVG Version: 6.00 Build 0)  -->
<!DOCTYPE svg PUBLIC "-//W3C//DTD SVG 1.1//EN" "http://www.w3.org/Graphics/SVG/1.1/DTD/svg11.dtd">
<svg version="1.1" id="Layer_1" xmlns="http://www.w3.org/2000/svg" xmlns:xlink="http://www.w3.org/1999/xlink" x="0px" y="0px"
	 viewBox="0 0 9053.3 6912" enable-background="new 0 0 9053.3 6912" xml:space="preserve">
<path d="M4320,4497.9c25.4-686.1-355.8-1143.5-1245.2-1524.7l-711.5-279.5c-406.6-177.9-762.4-355.8-914.8-508.2
	c-152.5-127.1-254.1-330.4-228.7-559.1c0-406.6,254.1-584.5,762.4-559.1c152.5,0,279.5,25.4,432,76.2
	c584.5,203.3,991.1,838.6,1270.6,1677.2c25.4,50.8,50.8,76.2,76.2,101.6c25.4,0,25.4,0,25.4-25.4c25.4,0,25.4-25.4,25.4-76.2V1067.3
	c0-50.8-25.4-101.6-76.2-101.6s-76.2,50.8-76.2,76.2c-25.4,50.8-50.8,76.2-152.5,76.2c-50.8,0-101.6-76.2-279.5-127.1
	C2642.8,864,2388.7,813.2,2083.8,787.8C914.8,762.4,25.4,1473.9,0,2439.5c0,609.9,406.6,1067.3,1372.2,1473.9l736.9,304.9
	c762.4,330.4,1041.9,635.3,1041.9,1041.9c-25.4,432-330.4,584.5-864,559.1c-177.9,0-355.8,25.4-584.5-50.8
	c-279.5-101.6-508.2-279.5-736.9-559.1c-406.6-508.2-660.7-1016.5-813.2-1550.1c0-50.8-50.8-101.6-76.2-101.6s-25.4,0-25.4,25.4
	C0,3608.5,0,3633.9,0,3684.7v2210.8c0,50.8,25.4,76.2,50.8,101.6c0,0,0,0,25.4,0s50.8-25.4,76.2-76.2
	c25.4-76.2,101.6-101.6,203.3-101.6c76.2,0,101.6,25.4,330.4,76.2c635.3,152.5,1194.4,203.3,1600.9,228.7
	C3379.8,6149.6,4294.6,5488.9,4320,4497.9z"/>
<g>
	<path d="M4421.2,3007.2h133.4v403h501.2v-403h133.4v975.3h-133.4v-456.1h-501.2v456.1h-133.4V3007.2z"/>
	<path d="M6447.4,3146.6c64.6,86.3,96.9,196.7,96.9,331.3c0,145.6-37,266.7-110.9,363.2c-86.8,113.3-210.5,170-371.1,170
		c-150,0-268-49.6-353.9-148.7c-76.6-95.6-114.9-216.4-114.9-362.5c0-131.9,32.7-244.8,98.3-338.6
		c84.1-120.4,208.5-180.6,373.1-180.6C6237.2,2980.6,6364.7,3035.9,6447.4,3146.6z M6330.9,3768.2c52-83.5,78-179.5,78-288
		c0-114.7-30-207.1-90-277.1c-60-70-142-105-246-105c-100.9,0-183.2,34.7-247,104c-63.7,69.3-95.6,171.5-95.6,306.6
		c0,108.1,27.3,199.2,82,273.4c54.7,74.2,143.3,111.3,265.9,111.3C6194.7,3893.5,6278.9,3851.7,6330.9,3768.2z"/>
	<path d="M6946.8,3007.2h189.3l280.4,824.6l278.4-824.6h187.9v975.3h-126.1v-575.6c0-19.9,0.4-52.9,1.3-98.9
		c0.9-46,1.3-95.4,1.3-148L7481,3982.4h-130.9L7069,3159.9v29.9c0,23.9,0.7,60.3,2,109.2c1.3,48.9,2,84.9,2,107.9v575.6h-126.1
		V3007.2z"/>
	<path d="M8335.6,3007.2h707.7v119.5h-578.9v296.1h535.1v112.9h-535.1v330.6h588.9v116.2h-717.7V3007.2z"/>
</g>
</svg>
