<?xml version="1.0" encoding="utf-8"?>
<!-- Generator: Adobe Illustrator 18.0.0, SVG Export Plug-In . SVG Version: 6.00 Build 0)  -->
<!DOCTYPE svg PUBLIC "-//W3C//DTD SVG 1.1//EN" "http://www.w3.org/Graphics/SVG/1.1/DTD/svg11.dtd">
<svg version="1.1" id="Layer_1" xmlns="http://www.w3.org/2000/svg" xmlns:xlink="http://www.w3.org/1999/xlink" x="0px" y="0px"
	 viewBox="0 0 612 792" enable-background="new 0 0 612 792" xml:space="preserve">
<path fill="#FFFFFF" d="M286.3,533.2c0,0.8-0.8,1.6-2.4,1.6h-51.6c-1.2,0-2.4-0.8-2.4-1.6s1.2-1.6,2-1.6c9.4-0.8,10.6-2.8,10.6-19.5
	v-70.3c0-10.2-0.8-14.2-3.3-17.5c-2-2.8-4.5-4.5-9.4-4.5c-1.2,0-2-0.8-2.4-1.6c0-0.8,0.8-1.6,2-2c13.8-2.8,31.7-7.7,41.9-11
	c1.2-0.4,2.4,0.4,2.4,1.6v105.3c0,16.3,1.2,18.7,10.2,19.5C285.5,531.6,286.3,532.4,286.3,533.2z"/>
<path fill="#FFFFFF" d="M457.9,445.8c-8.5,0-16.3,2.8-24,9.4h-0.4c0,0,0,0,0-0.4v-48c0-1.2-1.2-2-2.4-1.6c-9.4,3.3-28.1,8.1-41.9,11
	c-1.2,0.4-2,1.2-2,2s1.2,1.6,2.4,1.6c4.5,0.4,6.9,1.6,8.9,4.5c2.4,3.3,3.3,7.3,3.3,17.5v92.7c0,1.2,0.8,2,1.6,2s1.6-1.2,2-2
	c1.2-3.7,3.3-4.9,6.5-4.9c1.6,0,2,0,4.9,1.2c15,5.3,18.3,5.7,26.8,5.7c27.7,0,48-21.6,48-50.4C491.6,462.9,477.4,445.8,457.9,445.8z
	 M442.8,532c-6.9,0-9.8-4.9-9.8-17.9v-50.4c0-0.8,0.4-2,0.8-2.4c3.3-3.3,5.7-4.9,8.5-4.9c11,0,15.5,10.6,15.5,36.6
	C458.3,519.4,453.4,532,442.8,532z"/>
<path fill="#FFFFFF" d="M390,521.4c-8.1-1.2-10.2-5.3-10.2-18.7v-54.9c0-1.2-2-2-3.3-1.6c-12.2,2-29.7,4.1-39,4.1
	c-1.2,0-2,0.8-2,1.6s0.8,1.6,2,1.6c8.9,0.8,10.6,4.1,10.6,19.1v42.7c0,0.8,0,2.4-0.4,2.8c-4.1,3.7-6.9,5.3-10.6,5.3
	c-3.3,0-6.5-1.6-7.7-4.1c-1.2-2.4-1.6-5.3-1.6-11v-60.6c0-1.2-2-2-3.3-1.6c-12.2,2-29.7,4.1-39,4.1c-1.2,0-2,0.8-2,1.6
	s0.8,1.6,2,1.6c8.9,0.8,11,4.5,11,19.5v38.2c0,9.4,0.8,14.2,4.1,18.3c3.3,4.5,10.2,7.7,17.1,7.7c7.3,0,14.6-2.4,21.6-6.9
	c2.8-2,4.9-3.7,10.2-8.1l0,0c0,0,0,0,0,0.4v12.6c0,1.2,1.2,2,2.4,1.6l19.9-6.5c6.5-2,12.2-3.7,19.5-4.9c1.2,0,2-0.8,2-1.6
	C392,522.3,391.2,521.9,390,521.4z"/>
<path fill="#FFFFFF" d="M217.6,486.1c-0.8,0-1.6,1.2-2,2c-2.8,11-6.5,19.1-12.2,27.2c-8.5,13-16.7,15-24,15
	c-6.5,0-14.2-0.8-18.7-7.7c-6.9-10.2-11.8-23.2-11.8-43.9c0-36.6,10.2-55.3,26.4-55.3c8.5,0,16.3,2,23.6,11.4
	c6.9,8.5,11.8,17.5,15.5,28.5c0.4,0.8,1.2,2,2,2c0.4,0,0.4,0,0.8-0.4c0.4-0.4,0.4-1.2,0.4-2l-2.4-42.3c0-1.2-0.8-2-1.6-2
	c-0.8,0-1.2,0.4-2,1.6c-0.8,1.2-1.6,1.6-3.3,1.6c-2,0-4.1-0.4-8.9-1.6c-8.5-2-17.1-3.3-23.2-3.3c-35,0-63.4,28.1-63.4,61.4
	c0,33.8,29.7,58.6,65.9,58.6c4.9,0,12.6-0.8,16.3-1.2c11.8-2.4,15-2.8,16.7-2.8c1.2,0,2.4,0.4,2.8,1.6c0.4,1.2,1.2,2,1.6,2
	c0.8,0,1.6-0.8,1.6-2l1.6-45.5c0-0.8,0-1.6-0.4-2C218.4,486.5,218,486.1,217.6,486.1z"/>
<path fill="#FFFFFF" d="M576.2,330.7c1.6,0,3.7,0.4,5.7,0.8c10.2,2.8,18.7,16.3,21.1,33.3c0,0.8,0.8,2,1.6,2.4s1.6-0.4,2-1.6
	l5.3-24.4c0.4-1.2-0.4-2.4-1.2-3.3c-9.8-6.1-18.3-9.8-26.4-12.2c-4.5-1.2-9.4-2-13.8-2c-15,0-26.8,7.3-30.1,19.5
	c-3.3,12.2,2.8,22.8,22,36.2l6.9,5.7c10.2,7.3,13,11.8,11,18.7c-1.2,4.1-4.1,6.1-8.5,6.1c-2,0-4.1-0.4-6.5-0.8
	c-13.8-4.1-24-20.3-27.7-45.5c0-0.8-0.8-2-1.6-2.4s-1.6,0.4-2,1.6L527,393c-0.4,1.2,0.4,2.4,1.2,3.3c12.2,8.9,24.8,15.9,32.9,18.3
	c4.5,1.2,9.4,2,13.8,2c15.9,0,28.1-8.5,32.1-22c3.3-11.8-2.4-22-18.3-32.5l-10.2-6.9c-9.4-6.1-13-12.2-11-18.7
	C568.9,332,573,330.7,576.2,330.7z"/>
<path fill="#FFFFFF" d="M520.1,326.3c-5.7-11.8-17.1-19.5-30.9-22.4c-2.8-0.4-5.7-0.8-8.5-0.8c-22.8,0-41.9,16.3-46,38.6
	c-2,11.8,0.4,24,7.3,33.3c6.9,9.8,17.5,16.3,29.7,18.3c2.8,0.4,5.7,0.8,8.5,0.8c10.2,0,19.5-3.3,26.8-9.8c5.7-4.9,9.4-8.9,14.2-17.1
	c1.6-2.8-0.8-5.3-3.7-2.8c-6.5,6.5-12.2,10.2-19.9,10.2c-2,0-4.5-0.4-6.9-0.8c-17.1-3.3-24.4-13.4-22.8-31.3c0-0.4,0.4-0.8,1.2-0.8
	l52.9,9.4h0.4c1.2,0,2-0.8,2-1.6v-1.2C524.6,339.3,523.4,333.6,520.1,326.3z M493.7,339.3c0,0.4-0.4,0.8-1.2,0.8l-22.8-4.1
	c-0.4,0-0.4,0-0.8-0.4c0-0.4-0.4-0.4,0-0.8c3.3-16.7,8.1-24.8,15.5-24.8c0.8,0,1.6,0,2,0.4c5.7,0.8,8.9,2,8.9,10.2
	C495.7,325,495.3,329.9,493.7,339.3z"/>
<path fill="#FFFFFF" d="M107.4,359.2c-4.5-14.6-15.9-21.6-37-23.2l-17.1-1.2c-9.8-0.8-18.7-2-23.2-4.1c-4.5-1.6-7.7-5.3-8.9-10.2
	c-2.4-8.5,1.2-14.2,12.2-17.5c3.3-0.8,6.5-1.6,9.8-1.6c13.8,0,28.1,8.9,40.3,24.8c0.8,0.8,1.6,1.6,2.4,1.2c0.4,0,0.4-0.4,0.8-0.4
	c0.4-0.4,0.4-1.2,0-2l-13.4-37c-0.4-1.2-1.2-2-2-1.6c-0.8,0.4-1.2,1.6-1.2,2.4c0,1.6-0.8,2-2.4,2.4c-1.2,0.4-3.7,0.8-7.7,1.2
	c-13.8,0.8-19.5,1.6-26,4.1c-24.4,7.7-38.2,28.9-32.1,49.6c4.1,13.4,15.9,19.9,39.4,21.6L59,369c18.3,1.2,26.8,5.7,29.7,14.6
	c2.8,8.9-1.6,15-13,18.7c-4.1,1.2-8.9,2.4-13.8,2.4c-6.5,0-12.6-2-19.9-6.5c-12.2-7.7-22-16.7-29.3-26.8c-0.4-0.8-1.6-1.6-2.4-1.2
	c-0.4,0-0.4,0.4-0.8,0.4c-0.4,0.4-0.4,1.2,0,2l16.3,46.8c0.4,1.6,1.2,2.4,1.6,2.4h0.4c0.8,0,1.2-0.8,1.2-2.4
	c0.4-1.6,1.2-2.8,3.7-3.3c1.6-0.4,3.3-0.8,8.1-1.2c14.6-1.2,28.1-3.7,36.6-6.1C101.3,401.1,113.9,379.9,107.4,359.2z"/>
<path fill="#FFFFFF" d="M223.7,306.7c2.8,0,6.1,1.2,7.3,3.7c1.6,2.8,2,6.1,2.8,19.1l2,32.1c0.4,8.9,0.4,10.6-0.4,12.6
	c-0.8,2-2,3.3-4.5,3.7c-1.2,0.4-2,0.8-2,1.6s-0.4,1.2,0.8,1.2h0.4c13.8-0.8,29.3-1.2,42.7-1.2h0.8c0.8,0,2,0,2.8,0
	c0.8,0,1.2-0.4,1.6-0.8s0.4-0.8,0.4-1.6c0-1.2-0.8-2-2.4-2c-7.3-0.4-8.5-2.4-8.9-15.5l-2.4-44.3c-0.4-9.4-2-14.2-5.3-17.9
	c-3.7-4.5-10.2-6.9-18.3-6.5c-11,0.8-19.1,5.3-29.3,17.1l0,0l0,0l-0.8-13c0-1.2-1.2-2-2.4-1.6c-15.9,6.5-28.1,11-41.1,14.6
	c-1.2,0.4-2,1.2-1.6,2c0.4,0.8,1.2,1.2,2.4,1.2c4.5,0.4,6.9,1.2,9.4,4.1c2.8,3.3,3.7,6.9,4.5,17.5l1.6,28.1
	c0.8,17.1-0.4,19.1-11.8,20.3c-1.6,0-2.4,0-3.7,0c-7.3,0-8.9-2.4-10.6-17.5l-6.9-63.8c0-1.2-1.2-2-2.4-1.2
	c-9.8,4.9-26.8,11.8-40.3,16.7c-1.2,0.4-2,1.2-1.6,2c0,0.8,1.2,1.2,2.4,1.2c4.5,0,7.3,0.8,9.8,3.7c2.8,3.3,4.1,6.9,5.3,17.1
	l2.8,28.1c1.6,16.3-1.2,20.7-10.2,22.8c-1.2,0.4-2,0.8-2,1.6s1.6,1.2,2.4,1.2l0,0c0.4,0-0.4,0,0,0c7.3-1.2,49.2-8.1,105.3-11.4
	c0.8,0,1.6-0.4,2-0.8c0.4-0.4,0.4-0.4,0.4-0.8c0-0.8-1.2-1.2-2-1.6c-5.3-0.8-6.1-2.8-6.5-15.5l-4.5-46.8c0-0.8,0.4-1.6,0.8-2.4
	C217.1,309.6,220.4,307.1,223.7,306.7z"/>
<path fill="#FFFFFF" d="M383.1,265.7c4.5,0.8,6.9,2.4,8.9,5.3c2.4,3.7,2.4,7.3,1.6,17.5l-8.1,85.8c0,1.2,0,2.4,0.4,3.3
	c0,0.4,0.4,0.8,0.4,1.2c0.4,1.2,1.2,2,2.4,2.4l36.6,3.7h0.4c1.2,0,3.3-0.4,3.7-1.2c0-0.8-0.8-1.6-2-1.6c-8.9-1.6-9.8-4.1-8.5-20.3
	l9.8-104.9c0-0.4,0-1.2-0.4-1.6c-0.8,0-1.6,0-2,0c-10.6,2.4-28.5,5.3-42.7,6.9c-1.2,0-2,0.8-2,1.6
	C381,264.9,382.2,265.7,383.1,265.7z"/>
<path fill="#FFFFFF" d="M346.9,357.6c-2.8,0-7.7,0-11.4,0c-4.9,0.4-8.9,0.4-11.8,0.4c-14.2-0.4-19.5-3.3-19.1-10.6
	c0-2,0.8-3.7,3.3-5.7c0.4-0.4,1.6-0.8,2-0.4c6.5,2.4,11.8,3.3,18.3,3.7h0.4c0.4,0,0.8,0,1.2,0c21.6,0,38.6-12.6,39-28.9
	c0-7.3-3.7-14.2-10.2-19.5c-6.9-4.9-15.9-8.5-23.2-8.9h-2c0,0-0.4,0-0.8,0h-0.4v-0.8c0.4-8.9,2.8-10.2,5.3-10.2
	c1.6,0,2.8,0.8,6.1,4.5c3.7,4.1,6.5,5.3,10.6,5.7c7.3,0,12.6-5.7,13-13.4c0-8.5-6.5-15-15.5-15h-0.4c-13,0-21.6,10.6-21.6,27.2v1.6
	c0,0.4-0.4,1.2-1.2,1.2c-8.9,0.4-14.2,1.6-20.7,4.9c-11,5.7-17.5,14.2-17.9,23.6c0,10.2,4.9,17.9,14.6,22.8c0.4,0,0.4,0,0.4,0
	s0,0-0.4,0.4c-13,8.1-19.1,16.7-19.1,26.8c0,9.8,5.7,17.1,17.1,20.7c-11,4.5-16.7,10.6-17.1,17.9c-0.4,12.2,14.2,20.3,38.2,21.1
	c0.8,0,1.6,0,2,0c29.7,0,52.5-16.7,52.9-38.6C378.6,371,365.6,358,346.9,357.6z M316.4,314.1c0.4-17.5,5.3-21.1,12.2-21.1
	c3.3,0,6.1,1.2,8.1,3.3c3.7,3.7,5.3,11,4.9,22.4c-0.4,17.9-4.9,21.1-12.2,21.1c-3.7,0-6.1-1.2-8.1-3.3
	C317.6,332.8,316.4,325.9,316.4,314.1z M333.9,420.2c-0.4,0-0.8,0-1.2,0c-18.3-0.4-30.1-8.9-29.7-21.6c0-4.5,1.2-7.3,4.1-9.4
	c0.4-0.4,1.2-0.4,2-0.4h0.4c4.9,0.8,7.7,1.2,11.8,1.2c1.6,0,4.1,0,6.9,0h2.8c4.9,0,7.7,0,9.4,0c12.2,0.4,18.7,5.3,18.3,14.2
	C358.3,414.1,348.9,420.2,333.9,420.2z"/>
<circle fill="#FFFFFF" cx="130.5" cy="277.5" r="18.3"/>
</svg>
