<?xml version="1.0" encoding="utf-8"?>
<!-- Generator: Adobe Illustrator 18.0.0, SVG Export Plug-In . SVG Version: 6.00 Build 0)  -->
<!DOCTYPE svg PUBLIC "-//W3C//DTD SVG 1.1//EN" "http://www.w3.org/Graphics/SVG/1.1/DTD/svg11.dtd">
<svg version="1.1" id="Layer_1" xmlns="http://www.w3.org/2000/svg" xmlns:xlink="http://www.w3.org/1999/xlink" x="0px" y="0px"
	 viewBox="0 0 17 21" enable-background="new 0 0 17 21" xml:space="preserve">
<path fill="#FFFFFF" d="M17,14.6c0.1-2.7-1.4-4.5-4.9-6L9.3,7.5c-1.6-0.7-3-1.4-3.6-2C5.1,5,4.7,4.2,4.8,3.3c0-1.6,1-2.3,3-2.2
	c0.6,0,1.1,0.1,1.7,0.3c2.3,0.8,3.9,3.3,5,6.6c0.1,0.2,0.2,0.3,0.3,0.4c0.1,0,0.1,0,0.1-0.1C15,8.3,15,8.2,15,8l0-6.9
	c0-0.2-0.1-0.4-0.3-0.4c-0.2,0-0.3,0.2-0.3,0.3c-0.1,0.2-0.2,0.3-0.6,0.3c-0.2,0-0.4-0.3-1.1-0.5C10.4,0.3,9.4,0.1,8.2,0
	C3.6-0.1,0.1,2.7,0,6.5C0,8.9,1.6,10.7,5.4,12.3l2.9,1.2c3,1.3,4.1,2.5,4.1,4.1c-0.1,1.7-1.3,2.3-3.4,2.2c-0.7,0-1.4,0.1-2.3-0.2
	c-1.1-0.4-2-1.1-2.9-2.2c-1.6-2-2.6-4-3.2-6.1c0-0.2-0.2-0.4-0.3-0.4c-0.1,0-0.1,0-0.1,0.1C0,11.1,0,11.2,0,11.4l0,8.7
	c0,0.2,0.1,0.3,0.2,0.4c0,0,0,0,0.1,0c0.1,0,0.2-0.1,0.3-0.3c0.1-0.3,0.4-0.4,0.8-0.4c0.3,0,0.4,0.1,1.3,0.3C5.2,20.7,7.4,20.9,9,21
	C13.3,21.1,16.9,18.5,17,14.6z"/>
</svg>
