<?xml version="1.0" encoding="utf-8"?>
<!-- Generator: Adobe Illustrator 18.0.0, SVG Export Plug-In . SVG Version: 6.00 Build 0)  -->
<!DOCTYPE svg PUBLIC "-//W3C//DTD SVG 1.1//EN" "http://www.w3.org/Graphics/SVG/1.1/DTD/svg11.dtd">
<svg version="1.1" id="Layer_1" xmlns="http://www.w3.org/2000/svg" xmlns:xlink="http://www.w3.org/1999/xlink" x="0px" y="0px"
	 viewBox="0 0 884.8 227.6" enable-background="new 0 0 884.8 227.6" xml:space="preserve">
<g>
	<path fill="#010101" d="M0,1.7h28c7.3,0,14.3,0.5,19.2,3.5c6.2,3.8,9.1,11,9.1,18c0,10.3-5.1,16.9-11.7,18.4v0.6
		c5.7,0.8,13.5,6.9,13.5,19.4c0,6.2-0.9,12.6-6.6,18.3c-6.1,6.2-13.4,6.7-24.2,6.7H0V1.7z M18.1,36.3c14.9,0,19.8-0.5,19.8-11.2
		c0-10.3-7.5-10.3-11.3-10.3h-8.4V36.3z M18.1,73.2h9.2c7.4,0,12-3.5,12-12.1c0-4-1-8.8-5.4-10.6c-2.7-1-9.2-1-15.8-1V73.2z"/>
	<path fill="#010101" d="M91.8,86.6H73.4V1.7h27.4c13.8,0,31.2,1.8,31.2,24.6c0,10.7-4.3,19-16.2,22.5l18.5,37.7h-20.2L98.1,51.9
		h-6.2V86.6z M91.8,38.4c10.5,0,12.1,0,14.8-0.9c5.9-2.1,6.4-6.7,6.4-11.3c0-5.9-1.8-8.8-5.5-10.2c-2.9-1-5.2-1-15.6-1V38.4z"/>
	<path fill="#010101" d="M145.9,86.6v-7.5h9.9V9.1h-9.9V1.7h38.7v7.4h-10.1v69.7h10.1v7.7H145.9z"/>
	<path fill="#010101" d="M194.5,33.1c0-7.5,0-18.3,8.8-26.4c6.5-5.9,14.1-6.7,22.3-6.7c16.1,0,27.5,9.8,27.5,26.2h-18.5
		c-0.3-7.5-4.2-11-10.5-11c-9.7,0-10.4,8.3-10.4,13.3v26.7c0,11.1,2.1,17.9,11.2,17.9c9.7,0,9.7-8,9.7-11.1v-5.8h-9.9V42.2h28.4
		v45.3h-8.3l-2.4-5.9h-0.8c-2.4,2.9-6.2,7.3-19.3,7.3c-8.6,0-16.4-2.4-22-9.4c-4.6-5.9-5.8-12.9-5.8-23.5V33.1z"/>
	<path fill="#010101" d="M270.9,1.7h18.8v32.1h23.8V1.7h19.1v84.8h-18.7V49.9h-24v36.6h-19V1.7z"/>
	<path fill="#010101" d="M408.9,1.7v15.5h-21.1v69.3h-19.4V17.2h-21.6V1.7H408.9z"/>
	<path fill="#010101" d="M453.6,1.7h19v69h37.3v15.8h-56.3V1.7z"/>
	<path fill="#010101" d="M521.1,86.6v-7.5h9.9V9.1h-9.9V1.7h38.7v7.4h-10.1v69.7h10.1v7.7H521.1z"/>
	<path fill="#010101" d="M569.8,33.1c0-7.5,0-18.3,8.8-26.4C585,0.8,592.6,0,600.8,0c16.1,0,27.5,9.8,27.5,26.2h-18.5
		c-0.3-7.5-4.2-11-10.5-11c-9.7,0-10.4,8.3-10.4,13.3v26.7c0,11.1,2.1,17.9,11.2,17.9c9.7,0,9.7-8,9.7-11.1v-5.8h-9.9V42.2h28.4
		v45.3H620l-2.4-5.9h-0.8c-2.4,2.9-6.2,7.3-19.3,7.3c-8.6,0-16.4-2.4-22-9.4c-4.6-5.9-5.8-12.9-5.8-23.5V33.1z"/>
	<path fill="#010101" d="M646.1,1.7H665v32.1h23.8V1.7h19.1v84.8h-18.7V49.9h-24v36.6h-19V1.7z"/>
	<path fill="#010101" d="M784.1,1.7v15.5H763v69.3h-19.4V17.2H722V1.7H784.1z"/>
	<path fill="#010101" d="M838.2,24.5c-2.7-5.1-8.1-9.5-14.7-9.5c-9.7,0-9.9,7.3-9.9,8.2c0,6,5.5,8.4,10.7,10.3l10.7,3.9
		c5.1,1.8,11.1,5.3,14.4,9.9c1,1.4,4.7,6.9,4.7,14.9c0,3.8,0,15.1-12,22.4c-5,3-12,4.3-16.3,4.3c-14.9,0-23.7-3.6-31.3-17.2
		l14.4-9.6c3.1,7.2,8.8,11.6,16.1,11.6c4,0,11.3-1.8,11.3-9.6c0-6.4-3.5-7.7-16.2-12.7c-12.8-5-23.9-10.6-23.9-27.4
		c0-14,10.2-24,27.6-24c12.5,0,21.3,5.1,28.2,15.3L838.2,24.5z"/>
	<path fill="#010101" d="M866.8,68.9h17.9v19.4l-9.4,19h-8.6l7.9-20.7h-7.9V68.9z"/>
	<path fill="#010101" d="M0,140.4h28c7.3,0,14.3,0.5,19.2,3.5c6.2,3.8,9.1,11,9.1,18c0,10.3-5.1,16.9-11.7,18.4v0.6
		c5.7,0.8,13.5,6.9,13.5,19.4c0,6.2-0.9,12.6-6.6,18.3c-6.1,6.2-13.4,6.7-24.2,6.7H0V140.4z M18.1,175c14.9,0,19.8-0.5,19.8-11.2
		c0-10.3-7.5-10.3-11.3-10.3h-8.4V175z M18.1,211.8h9.2c7.4,0,12-3.5,12-12.1c0-4-1-8.8-5.4-10.6c-2.7-1-9.2-1-15.8-1V211.8z"/>
	<path fill="#010101" d="M72.9,140.4h19v69h37.3v15.8H72.9V140.4z"/>
	<path fill="#010101" d="M142.3,170.3c0-8.7,1.5-17,7.4-23.5c5.3-5.9,13.3-8.1,21.3-8.1c8.7,0,16.6,2.1,22.3,8.2
		c4.7,5.1,7.4,12.6,7.4,26.2v20.6c0,11.9-2,19.5-7.3,25.3c-7,7.6-17.2,8.4-22.7,8.4c-8.3,0-22-3-26.2-17.3c-1.8-6-2.2-13.4-2.2-17.1
		V170.3z M161.2,196.9c0,8.9,1.7,15.3,10.1,15.3c10.1,0,10.1-9.4,10.1-15.3v-29.5c0-5.9,0-13.1-9.8-13.1c-10.3,0-10.3,9.7-10.3,13.1
		V196.9z"/>
	<path fill="#010101" d="M216.1,171.7c0-7.5,0-18.3,8.8-26.4c6.5-5.9,14.1-6.7,22.3-6.7c16.1,0,27.5,9.8,27.5,26.2h-18.5
		c-0.3-7.5-4.2-11-10.5-11c-9.7,0-10.4,8.3-10.4,13.3v26.7c0,11.1,2.1,17.9,11.2,17.9c9.7,0,9.7-8,9.7-11.1V195h-9.9v-14.1h28.4
		v45.3h-8.3l-2.4-5.9h-0.8c-2.4,2.9-6.2,7.3-19.3,7.3c-8.6,0-16.4-2.4-22-9.4c-4.6-5.9-5.8-12.9-5.8-23.5V171.7z"/>
	<path fill="#010101" d="M326.2,169c0-19.4,10.4-30.4,30.2-30.4c5.1,0,12.7,1,18.6,5.7c7.6,6,8.6,16.4,8.8,23.2h-18.6
		c-0.1-4.2-0.3-13.4-9.6-13.4c-2.3,0-5.2,0.9-7,2.7c-3,2.8-3.1,6.9-3.1,9.2v32.2c0,4.6,0,13.5,10.3,13.5c7.6,0,9.9-6.2,9.9-15.4
		h18.7c-0.1,6.1-0.2,6.8-0.8,10.4c-0.7,3.4-1.8,9.5-8.9,15.1c-6,4.9-14.8,5.7-18.5,5.7c-9.8,0-16.6-2.3-22-7.5
		c-3.5-3.4-8-8.2-8-25.5V169z"/>
	<path fill="#010101" d="M394.8,225.2v-7.5h9.9v-69.9h-9.9v-7.4h38.7v7.4h-10.1v69.7h10.1v7.7H394.8z"/>
	<path fill="#010101" d="M506.2,140.4v15.5h-21.1v69.3h-19.4v-69.3H444v-15.5H506.2z"/>
	<path fill="#010101" d="M543.6,225.2v-33.5l-26.8-51.3h20l10.7,21.1c0.8,1.6,4.2,8.9,4.9,10.4h0.6c1.6-3.6,2-4.2,4.9-10.2
		l10.3-21.4h19.8L562.3,191v34.2H543.6z"/>
</g>
</svg>
