<?xml version="1.0" encoding="utf-8"?>
<!-- Generator: Adobe Illustrator 18.0.0, SVG Export Plug-In . SVG Version: 6.00 Build 0)  -->
<!DOCTYPE svg PUBLIC "-//W3C//DTD SVG 1.1//EN" "http://www.w3.org/Graphics/SVG/1.1/DTD/svg11.dtd">
<svg version="1.1" id="Layer_1" xmlns="http://www.w3.org/2000/svg" xmlns:xlink="http://www.w3.org/1999/xlink" x="0px" y="0px"
	 viewBox="0 0 1119.2 543.8" enable-background="new 0 0 1119.2 543.8" xml:space="preserve">
<g>
	<g>
		<path d="M330.3,483c-0.7-28,0.9-56,1.4-83.9c0.6-32.1,2.2-64.2,3.1-96.4c0.6-23.8,2.8-47.5,5.3-71.1c1.6-15.2,1.8-30.6,2-45.9
			c0.1-13.8,2.4-27.5,3.5-41.2c1.1-12.7,0.8-25.3,0.7-38c-0.1-9.9,1.2-19.6,2.5-29.3c1.3-10.1,0.7-20.3,0.9-30.5
			c0.2-12.8,0.8-25.6-0.1-38.5c-0.2-3.1,1-4.6,4.3-4.6c17.8,0,35.7-1.2,53.4,0.1c11.7,0.8,23.8,1.2,34.8,7.1c8.5,4.6,15,10.9,20,19
			c9,14.6,15.9,29.9,16.4,47.4c0.2,5.3,0.3,10.7-0.8,15.9c-0.7,3.2,0.3,6.3,0.4,9.4c0.4,11.3-0.7,22.5-2.2,33.7
			c-2.8,20-7.7,39.7-10.6,59.7c-1.6,11-5.4,21.5-9.9,31.7c-3.8,8.5-6.7,17.3-9.9,26.1c-4.1,11-8.6,22-17.7,30.1
			c-7.1,6.3-14.9,11.5-24.5,13.1c-3,0.5-3.4,2.9-3,5.4c1.3,8.2,2.8,16.3,3.7,24.6c1,8.6,0.9,17.3,2.4,25.8
			c2.9,16.5,5.5,33.1,8.3,49.6c1.4,8,2.8,16,4.6,24c4.2,18.9,7,38.2,13.3,56.6c4.9,14.2,8.3,29,14.9,42.6c2,4.1,1.3,5.3-3.1,5.8
			c-2,0.2-4,0.1-6,0.1c-2.1,0-3.3-1-4-3c-2.9-8.1-6.3-16-8.9-24.2c-7.5-23.2-14.1-46.6-18.6-70.7c-3.1-16.8-6.5-33.6-9.6-50.4
			c-2.1-11.2-3.6-22.6-5-34c-2.7-22.9-4.7-45.9-9.8-68.5c-1.1-5,0.1-6.7,5-6.5c10.3,0.4,18.6-3.5,26.5-9.8
			c6.9-5.4,11.8-11.8,14.9-19.9c2-5.2,5.9-9.5,8.4-14.5c3.9-7.8,8-15.6,11.3-23.7c4.1-9.8,5.4-20.2,7.5-30.4
			c1.6-7.6,3.2-15.2,5-22.8c2-8.7,3.1-17.6,4.2-26.5c1.1-9.6,1.1-19.2,0.3-28.8c-0.4-5.4,0.5-10.9,0.6-16.4
			c0.1-19.8-7.6-36.3-20.8-50.6c-8.2-8.9-18.9-11.8-30.2-13c-16.4-1.7-32.8-1.4-49.2-1.4c-3.7,0-4.5,1.3-4.4,4.7
			c0.1,11-0.3,22-0.1,33c0.2,12.2-1,24.2-2.8,36.2c-1.1,8-0.6,16.3-0.5,24.5c0.2,15.8-0.8,31.6-2.5,47.3
			c-1.6,14.4-1.6,28.9-2.4,43.4c-1.1,20.9-3,41.8-4.5,62.8c-0.8,11.6-2.2,23.3-2.2,34.9c0.1,28.5-2.5,56.9-2.8,85.4
			c-0.4,32.5-1.5,65-1.2,97.4c0.2,14.5-0.1,29-0.2,43.5c0,5.1-0.5,5.3-6.9,5.6c-4.6,0.2-5.2-1.9-5.1-5.7
			C330.3,513.7,330.3,498.4,330.3,483z"/>
		<path d="M972.2,446.2c1.1-35,1.2-69.5,2.9-103.9c0.6-13,0.8-25.9,1.1-38.9c0.4-18,2.4-35.8,3.7-53.7c1.8-25.4,2.7-50.8,3.7-76.3
			c0.5-13.9,3.5-27.7,3.8-41.7c0.2-10.5,0.2-21,0.1-31.5c0-7.5,1.4-14.9,1.9-22.3c1.5-23.8,2.2-47.6,1-71.4c-0.3-5.9-0.3-6,5.9-6.1
			c16.5-0.2,33-0.8,49.5-0.3c10.2,0.3,20.4,1.3,30.2,5.2c9,3.6,15.6,9.9,20.1,17.8c6.7,11.6,13.6,23.1,18.3,35.9
			c3.9,10.7,5.5,21.5,4.5,32.7c-0.3,3.7,0.4,7.3,0.2,10.8c-0.9,13.4-1.4,26.7-4.2,40c-3.5,16.3-7.6,32.6-8.8,49.5
			c-0.6,9.4-3.7,18.2-7.2,26.9c-5.7,14.3-11.5,28.6-20.3,41.4c-2.6,3.8-5.1,7.8-7.8,11.6c-6.4,8.9-15.4,13.8-26,15.9
			c-2.4,0.5-3.7,1.3-3.2,3.9c1.5,9,2.5,18.1,4.7,26.9c2.7,10.9,3.5,22,4.1,33.1c0.7,15.4,3.6,30.4,7.4,45.2
			c3.7,14.2,6.1,28.6,9.8,42.7c4.8,18.5,8.6,37.4,16.6,55.1c1.9,4.2,2.8,8.8,5,13c1.5,2.8,0.7,4.9-3,4.9c-1.8,0-3.7,0-5.5,0.1
			c-3,0.2-4.4-1.2-5.4-4c-8.6-22.5-16.8-45-21.5-68.7c-4.3-21.8-10.6-43.1-14.7-65c-2-10.4-3.1-21-3.4-31.7
			c-0.4-12.7-2.6-25-5.4-37.4c-2.6-11.3-4.2-22.8-5.6-34.3c-1.1-9.1-0.6-9.2,8.8-9.3c2.7,0,5.7,0.6,7.7-2.4c0.3-0.4,1.2-0.6,1.8-0.6
			c10.3-0.4,17.2-6.1,22.9-14c7.3-10.1,14.1-20.5,20.2-31.3c4.1-7.3,5.7-15.3,7-23.2c2.7-17.2,7.2-34.1,10.4-51.2
			c2.6-13.8,5.5-27.6,3.4-41.9c-0.5-3.1,0.1-6.6,0.2-9.8c0.7-14.9-3.6-28-11.8-40.3c-5.1-7.6-10.6-14.9-17.4-20.9
			c-6.6-5.8-14.6-8.6-23.5-9.6c-15.7-1.8-31.5-0.9-47.2-1.4c-3.4-0.1-4.5,1-4.4,4.2c0.7,19.5,0.9,39.1-1.6,58.3
			c-3,22.8-0.5,45.6-2.8,68.2c-1.3,12.9-2.5,25.8-3.2,38.8c-0.6,12.8-0.9,25.6-1.8,38.3c-1.7,26.2-4.1,52.4-5.2,78.7
			c-2,52.2-4.3,104.5-4,156.8c0.1,17.3-0.4,34.6-0.4,52c0,5.3-3.5,4.1-6.5,4.3c-3.3,0.2-5.1-0.2-5-4.5
			C972.4,489.4,972.2,467.5,972.2,446.2z"/>
		<path d="M633.3,452.4c0-22.5-0.6-45,0.2-67.5c1-28,2.2-55.9,3.1-83.9c0.5-17.6,1.7-35.2,3.4-52.8c1.9-19.7,3.7-39.4,3.5-59.3
			c-0.1-14.8,2.3-29.5,3.5-44.3c0.4-4.5,0.5-9,0.6-13.5c0.1-17.6,0.2-35.1,2.5-52.7c3-22.8,1-45.9,1.3-68.9c0-0.5,0-1,0-1.5
			c0-5,4.2-7.8,8.8-5.8c1.8,0.8,1.9,2.5,2,4.2c0.4,23.5,0.8,47.1-1.2,70.4c-1.5,17-1.6,33.9-1.9,50.8c-0.2,12.4-1.2,24.8-3,37.2
			c-2,13.9-1.6,27.9-1.9,41.9c-0.1,2.8,1.3,2.8,3.4,2.8c19.8,0,39.6,0,59.5,0.1c13.7,0,27.3-0.1,41,0.1c4.2,0.1,5.4-1.4,5.5-5.3
			c0.5-13,0.4-26,1.9-38.9c2.6-22.2,3.2-44.5,2.7-66.8c-0.1-5.7,1.4-11.2,2.2-16.8c1.9-15.1,1-30.3,1.4-45.4
			c0.3-10,0.1-19.9-0.3-29.9c-0.1-4.1,1.4-5.1,5.2-5.1c3.8,0,5.8,0.7,5.7,5.2c-0.3,23.8,1.5,47.8-1.3,71.4
			c-2.8,23.8-0.3,47.6-3,71.2c-1.6,14.2-2.7,28.4-3.3,42.7c-0.5,12.3-0.2,24.7-1.6,36.9c-2.2,18.5-3.8,37-4.6,55.6
			c-1,22.8-1.5,45.6-2.3,68.4c-0.9,26.4-2.2,52.8-2.6,79.3c-0.5,28-0.3,56-0.4,84c0,5.5-1.1,6.4-6.4,6.2c-3.4-0.1-4.7-1.5-4.5-5
			c0.3-8.2,0.5-16.3,0.4-24.5c-0.2-34.1,0.1-68.3,0.9-102.4c0.4-15.5,1.1-30.9,1.9-46.4c0.7-12.5,0.2-25,0.8-37.4
			c1-18.8,2.5-37.5,3.8-56.3c0.2-3.7,0.2-7.3,0.4-11c0.2-2.9-0.7-3.9-4-3.8c-17.6,0.2-35.3,0.6-52.9,0.4
			c-15.9-0.2-31.9,0.6-47.8-0.3c-2.5-0.1-3.4,0.9-4,3.3c-0.8,3.4-1.2,7-1.2,10.4c-0.1,10.4-1.8,20.5-2.3,30.8
			c-0.7,14.5-1.1,28.9-1.5,43.4c-1.1,41.3-3.1,82.5-3.5,123.8c-0.2,23.8-0.1,47.7-0.1,71.5c0,6.6-0.8,7.2-7.2,6.7
			c-3.2-0.2-4.2-1.7-4.2-4.9c0.1-22.8,0.1-45.6,0.1-68.5C632.4,452.4,632.8,452.4,633.3,452.4z"/>
		<path d="M143.7,410.7c0.8-25.4,2-52.1,2.4-78.7c0.3-19.5,1.4-39,2.4-58.4c0.6-12.1,2-24.2,3-36.3c1.2-14.3,2.3-28.6,2.5-42.9
			c0.2-16.2,2-32.2,3.8-48.2c0.8-7.1,1.1-14.3,0.6-21.5c-1.5-23.7,3.4-47.1,3.5-70.8c0.1-14.8,0.8-29.6-0.1-44.4
			c-0.2-3.2,0.5-4.6,3.9-4.8c6.6-0.3,8.1,0.2,8.1,4.3c0.1,10.3,0.1,20.6,0,31c0,7.2-0.4,14.3-0.3,21.5c0.1,10.2-1.7,20.1-2.8,30.2
			c-1.1,10.1-0.5,20.3-0.4,30.5c0.1,14-1.1,27.9-2.7,41.8c-0.7,5.8-1.1,11.6-1.1,17.4c0.2,23.7-2.8,47.1-4.3,70.7
			c-1.7,27.1-3.6,54.1-4,81.2c-0.3,22.1-1.9,44.2-2.5,66.3c-0.4,17-1.3,33.9-0.8,50.9c0.3,9.5,0.8,19.1,3,28.6
			c1.4,6.5,2.6,13,4.8,19.2c6.3,17.3,18.9,27,36.9,30.3c15.6,2.9,30-0.1,43.3-8.3c8.7-5.4,14.2-13.9,18.4-23.1
			c5.2-11.7,6.9-24.1,7.2-36.8c0.3-12.1,1.8-24.1,2.3-36.2c0.8-21.4,1-42.9,1.7-64.3c0.9-27.6,1.9-55.2,3.2-82.8
			c0.7-14.3,2.4-28.5,3.6-42.7c1.6-18.1,1.7-36.3,2.4-54.4c0.6-15.6,3.7-31,4.2-46.7c0.2-6.8,0.2-13.6-0.1-20.5
			c-0.3-10.3,0.3-20.6,1.7-30.8c2.3-16.7,1.7-33.6,1.9-50.4c0.1-7.8,0.1-15.7-0.1-23.5c-0.1-3,0.9-4.4,3.9-4.3
			c3.1,0.2,7-1.4,8.1,3.4c0.2,0.8,0.1,1.7,0.1,2.5c-0.2,24,1.5,48.1-2.1,71.9c-2.4,16.1-1.7,32.2-1.8,48.3
			c-0.1,16.5-2.8,32.8-3.6,49.3c-0.6,12.6-0.7,25.3-1.7,37.9c-2.1,26-4,52.1-5.7,78.1c-0.7,11.1-0.5,22.3-1,33.4
			c-1.1,24.9-2.4,49.9-2.3,74.8c0,16.8-1.7,33.5-2,50.3c-0.4,15.6-2.5,31.1-7.8,45.9c-6.4,17.8-17.5,31.4-35.1,39.1
			c-5.4,2.4-11.2,3.2-17,3.6c-14,1-28,1.4-41.1-4.7c-14.7-6.9-23.4-19.2-29-34c-5.8-15.2-5.9-31.2-7.2-47.1
			C142.6,441.7,144,426.8,143.7,410.7z"/>
		<path d="M894,0.7c18.7,0,37.3,0.1,56-0.1c3.5,0,4.6,0.8,4.7,4.4c0.1,11.5,0.2,11.5-11.4,11.5c-31.3,0-62.6,0.1-94,0
			c-3.9,0-5.2,0.8-5.1,4.9c0.5,18.2,0.9,36.4-1.1,54.4c-2.1,19.1-1,38.3-2,57.3c-0.9,17.1-3.1,34-4.4,51.1c-0.6,7.5-0.3,15-0.5,22.4
			c-0.1,3.5,2.5,2.9,4.6,2.9c12.7,0,25.3-0.1,38-0.1c19.5-0.1,39-0.1,58.4-0.2c9.6,0,9.5,0,8.6,9.9c-0.3,3-0.4,6-0.5,9
			c-0.4,5.8-1.2,6.8-6.8,6.9c-11.6,0.1-23.3,0-34.9,0.1c-21.9,0.1-43.9,0.3-65.8,0.4c-2.3,0-3.2,0.6-3.4,3.1
			c-3.2,29.6-4.6,59.3-5.2,89.1c-0.5,23.6-2,47.2-2.3,70.8c-0.5,28.1-2,56.2-0.8,84.3c0.3,6.3-0.3,12.6-0.6,19
			c-0.1,2.7,0.7,3.9,3.7,3.7c22.6-1.3,45.3-0.7,67.9-2.4c11.8-0.9,23.7-0.3,35.5-0.5c3-0.1,3.8,1.3,3.7,3.9
			c-0.7,10.6,2.1,10.1-10.1,10.4c-24.8,0.5-49.6,1.7-74.4,2.6c-10.7,0.4-21.3,0.8-32,1.1c-6.1,0.2-6.3-0.1-6.2-6
			c0.1-22.7,0-45.3,0.3-68c0.4-25.1,0.9-50.3,1.7-75.4c0.8-25.4,1.8-50.9,3-76.3c1.1-24.6,3.1-49.1,5.4-73.7
			c1.1-12.4,0.9-25,1.6-37.4c1-16.4,2.5-32.8,3.8-49.2c0.2-2.7,0.2-5.3,0.3-8c0.1-15-0.5-29.9,1.7-44.8c2.8-18.8,1.8-37.9,2-56.8
			c0.1-6.3-0.1-12.7-0.4-19c-0.2-3.3,1.1-4.3,4.4-4.3c19,0.1,38,0.1,57,0.1C894,1.4,894,1.1,894,0.7z"/>
		<path d="M0.1,452.9c-0.2-18.1,1.1-43.8,1.6-69.6c0.6-28.4,1.5-56.9,2.6-85.3c0.8-19.6,2.7-39.1,4.5-58.6c1.6-17,2.4-34.2,2.4-51.4
			c0-13.5,2.3-26.8,3.5-40.2c1.3-15.3,0.9-30.6,1.1-45.9c0.1-13.1,2.6-26.1,3-39.3c0.5-17.3,0.5-34.6,0.2-52
			c-0.1-4.3,0.9-5.1,5.2-5.1c18.5,0.1,37-0.4,55.4-0.5c14.7-0.1,29.3,0.1,44-0.2c4.4-0.1,5.1,2,4.8,5.5c-0.3,3.1,1,6.6-4.7,6.6
			c-29.3-0.2-58.6,0-88-0.2c-3.8,0-4.7,1-4.7,4.7c-0.1,16.5-0.3,33-0.8,49.4c-0.2,5.3-1.1,10.6-1.9,15.8
			c-2.4,16.3-0.4,32.6-1.1,48.9c-0.7,14-2.3,27.8-3.6,41.7c-0.9,10.3,0.1,20.7-1.1,30.9c-0.3,2.4,1.3,2.5,3.2,2.5
			c19-0.2,37.9-0.3,56.9-0.3c11.3-0.1,22.6,0,33.9-0.2c2.6,0,3.8,0.9,3.6,3.4c-0.6,7.5-1.2,14.9-1.9,22.4c-0.2,2.6-1.8,3.5-4.5,3.6
			c-11.5,0.1-22.9,0.3-34.4,0.5c-14.1,0.3-28.2,0.6-42.3,0.9c-4.6,0.1-9.3,0-13.9-0.3c-2.2-0.1-2.9,0.5-3.1,2.6
			c-0.9,11.4-2.2,22.8-2.8,34.3c-1.1,21.3-1.8,42.5-2.7,63.8c-0.9,20.1-1.2,40.2-1.8,60.4c-1.3,44.1-0.7,88.2-1.2,132.4c0,1,0,2,0,3
			c0.3,6.1-0.1,6.3-6.1,6.6c-4,0.2-5.6-0.9-5.6-5.2C0.2,512.6,0.1,486.6,0.1,452.9z"/>
		<path d="M557,2.5c19.7,0,39.3,0.1,59-0.1c3.3,0,4.3,1.1,4.4,4.3c0.3,9.9,0.4,10.3-10,9.7c-14.3-0.8-28.7,0.2-42.9-0.6
			c-4.3-0.3-5.3,1.3-5.3,5.4c0,17.7,1.3,35.4-1.1,52.9c-3.4,24.7-1.1,49.5-3,74.2c-0.8,10.1-2.2,20.1-3.2,30.2
			c-0.4,4-0.6,7.9-0.6,11.9c-0.1,21-2.1,41.8-3.7,62.7c-1.4,18.9-3.1,37.8-3.6,56.7c-0.8,33.1-1.7,66.1-2.9,99.1
			c-1.3,37.5-0.7,74.9-1,112.4c0,5.7-4.9,9-10,6.8c-2.4-1-2-3.2-2-5.2c0-19.3,0.1-38.7,0-58c-0.2-32,1.4-63.9,2.4-95.9
			c0.6-19.5,0.9-38.9,1.8-58.4c1.3-26.1,2.2-52.2,5.3-78.2c2.1-17.5,1.8-35.2,2.4-52.9c0.3-7.3,1.2-14.6,2-21.9
			c1.6-16.2,2.4-32.5,2-48.8c-0.2-9.2,0.8-18.2,2-27.3c2.1-15.9,0.8-31.9,1.3-47.9c0.1-4.5-0.1-9,0-13.5c0.1-3-0.6-4.5-4.2-4.4
			c-16,0.3-32,0.3-47.9,0.5c-5,0.1-5.9-0.7-6-5.5c0-1,0.1-2-0.1-3c-0.7-4.1,1.3-5.2,5.1-5.1c17.5,0.1,35,0,52.5,0c2.3,0,4.7,0,7,0
			C557,2.7,557,2.6,557,2.5z"/>
	</g>
</g>
</svg>
